<?xml version="1.0" standalone="no"?>
<!DOCTYPE svg PUBLIC "-//W3C//DTD SVG 20010904//EN"
 "http://www.w3.org/TR/2001/REC-SVG-20010904/DTD/svg10.dtd">
<svg version="1.0" xmlns="http://www.w3.org/2000/svg"
 width="895.000000pt" height="895.000000pt" viewBox="0 0 895.000000 895.000000"
 preserveAspectRatio="xMidYMid meet">
<metadata>
Created by potrace 1.14, written by Peter Selinger 2001-2017
</metadata>
<g transform="translate(0.000000,895.000000) scale(0.100000,-0.100000)"
fill="#000000" stroke="none">
<path d="M2790 7660 c-20 -3 -34 -11 -32 -18 1 -7 -7 -12 -18 -12 -13 0 -18
-5 -14 -15 4 -8 1 -15 -6 -15 -7 0 -10 -6 -7 -14 3 -8 2 -16 -3 -18 -6 -2 -4
-14 3 -28 7 -14 13 -34 14 -45 2 -35 8 -50 23 -63 8 -8 9 -11 3 -7 -7 3 -13 1
-13 -4 0 -6 5 -11 12 -11 6 0 8 -3 5 -7 -4 -3 -1 -13 6 -21 10 -13 9 -15 -3
-8 -12 6 -11 4 1 -6 9 -7 14 -19 12 -25 -3 -7 -1 -13 4 -13 5 0 9 -10 10 -22
1 -11 6 -24 10 -27 4 -3 10 -17 11 -31 2 -14 8 -26 13 -28 5 -2 9 -15 9 -28 0
-13 4 -24 8 -24 4 0 8 -10 9 -22 1 -11 7 -24 14 -28 8 -6 8 -9 -2 -13 -10 -4
-10 -6 -1 -6 6 -1 12 -10 12 -21 0 -11 4 -20 8 -20 5 0 9 -6 10 -12 3 -31 7
-53 12 -58 14 -14 30 -51 20 -45 -13 8 9 -36 24 -46 4 -4 3 -10 -4 -14 -8 -5
-6 -11 7 -22 11 -9 12 -12 3 -8 -8 4 -6 -1 5 -10 17 -14 18 -17 5 -25 -13 -8
-13 -10 2 -10 9 0 20 -5 24 -12 4 -7 3 -8 -4 -4 -7 4 -12 2 -12 -3 0 -6 4 -11
9 -11 5 0 12 -7 15 -16 3 -8 2 -12 -4 -9 -6 3 -7 -1 -4 -9 3 -9 10 -16 15 -16
4 0 6 -7 3 -15 -4 -8 -2 -15 4 -15 6 0 8 -9 5 -20 -4 -15 0 -20 13 -20 15 0
16 -2 5 -9 -9 -6 -10 -11 -2 -15 6 -4 9 -12 6 -17 -4 -5 -2 -9 2 -9 8 0 34
-79 32 -96 0 -3 8 -12 18 -20 14 -11 15 -13 3 -14 -12 -1 -11 -3 3 -14 14 -11
15 -15 5 -19 -11 -4 -11 -6 0 -6 7 -1 11 -5 7 -10 -3 -5 0 -15 7 -23 7 -7 15
-24 16 -38 2 -14 8 -26 13 -28 5 -2 9 -11 9 -21 0 -9 6 -23 13 -30 7 -9 8 -12
0 -7 -6 3 -3 -12 8 -33 10 -22 19 -47 19 -56 0 -8 5 -15 11 -15 5 0 8 -4 5 -8
-3 -5 2 -22 10 -38 9 -16 16 -31 16 -34 1 -9 9 -34 19 -58 5 -13 7 -28 4 -33
-4 -5 -1 -9 4 -9 6 0 11 -9 11 -20 0 -11 5 -20 11 -20 8 0 7 -6 -2 -17 -8 -9
-9 -14 -3 -10 16 9 24 -15 10 -28 -13 -12 -197 -12 -216 0 -8 5 -11 4 -7 -2 4
-6 -4 -10 -18 -10 -14 0 -22 4 -18 10 4 6 1 7 -6 2 -17 -10 -131 -13 -131 -3
0 4 -7 5 -16 1 -26 -10 -257 -10 -278 0 -12 6 -16 5 -12 -1 3 -5 -5 -9 -19 -9
-14 0 -22 4 -18 10 4 6 1 7 -6 2 -15 -8 -131 -13 -131 -5 0 3 -15 4 -32 4 -18
-1 -38 3 -45 8 -7 5 -14 5 -18 -2 -3 -5 -11 -10 -16 -10 -6 0 -7 6 -3 13 6 9
5 9 -7 0 -12 -10 -18 -10 -27 -1 -7 7 -12 8 -12 2 0 -5 -9 -10 -20 -11 -12 -1
-18 3 -14 9 4 6 -1 6 -14 -1 -27 -14 -35 -14 -26 2 6 9 5 9 -7 0 -12 -10 -18
-10 -29 0 -7 6 -10 7 -7 1 3 -6 0 -11 -8 -11 -8 0 -13 3 -12 7 1 4 -13 21 -31
38 -20 19 -31 36 -26 43 4 7 3 9 -3 6 -6 -4 -14 0 -17 9 -3 8 -10 12 -16 9 -5
-3 -10 1 -10 9 0 9 -5 16 -12 16 -6 0 -9 3 -5 6 3 3 -10 21 -29 40 -20 18 -33
38 -29 44 3 5 1 10 -5 10 -18 0 -53 38 -45 49 6 10 -8 16 -30 11 -5 -1 -7 1
-3 5 4 4 2 13 -5 20 -7 7 -20 24 -31 39 -10 14 -23 23 -29 19 -6 -3 -7 -1 -3
6 5 7 -5 23 -23 38 -17 15 -31 33 -31 39 0 7 -7 14 -15 18 -8 3 -15 13 -15 21
0 9 -4 13 -10 10 -5 -3 -10 -1 -10 5 0 6 -5 8 -11 4 -7 -4 -10 -1 -7 7 5 14
-8 32 -59 84 -17 18 -29 36 -25 40 4 4 3 6 -3 5 -5 -1 -12 -2 -15 0 -23 8 -47
7 -47 -3 0 -7 -4 -21 -9 -31 -4 -11 -4 -17 2 -14 5 3 10 -10 11 -29 1 -20 7
-41 14 -47 9 -8 10 -8 4 3 -5 9 -4 12 3 7 6 -3 9 -17 6 -31 -3 -16 2 -27 13
-34 14 -8 15 -10 3 -11 -13 0 -13 -1 0 -10 8 -5 11 -10 6 -10 -5 0 -1 -10 10
-22 12 -13 13 -18 4 -13 -13 8 -13 7 -1 -8 7 -9 10 -17 6 -17 -4 0 -2 -6 4
-13 6 -8 8 -17 4 -20 -3 -4 -1 -7 5 -7 7 0 12 -9 12 -20 0 -11 3 -20 8 -20 4
0 8 -15 9 -32 2 -18 7 -34 13 -36 5 -2 10 -15 10 -28 0 -16 4 -23 11 -18 8 4
9 0 4 -15 -4 -15 -1 -23 10 -27 13 -6 14 -8 3 -15 -11 -7 -11 -9 1 -9 9 0 11
-7 8 -21 -3 -12 0 -22 9 -26 8 -3 11 -9 8 -14 -3 -5 -1 -9 5 -9 5 0 8 -9 6
-20 -2 -11 0 -20 6 -20 5 0 9 -6 9 -14 0 -17 -29 -25 -55 -16 -11 4 -24 5 -30
2 -18 -11 -50 -9 -57 2 -5 8 -8 7 -8 -2 0 -7 -5 -10 -10 -7 -6 4 -18 1 -27 -7
-10 -8 -14 -8 -10 -1 4 6 3 14 -3 18 -5 3 -10 2 -10 -2 0 -13 -44 -11 -52 1
-5 7 -8 7 -8 1 0 -6 -28 -10 -70 -9 -39 1 -73 -2 -76 -7 -3 -6 -10 -6 -17 -1
-7 5 -39 9 -72 9 -33 0 -65 -4 -72 -9 -7 -5 -14 -5 -17 1 -4 5 -20 8 -36 6
-22 -3 -29 -1 -24 8 5 9 4 9 -6 0 -8 -7 -20 -9 -35 -3 -13 5 -26 6 -29 2 -11
-11 -51 -10 -58 2 -5 8 -8 7 -8 -2 0 -7 -5 -10 -10 -7 -6 4 -18 1 -27 -7 -10
-8 -14 -8 -10 -1 4 6 3 14 -3 18 -5 3 -10 2 -10 -2 0 -13 -44 -11 -52 1 -5 7
-8 7 -8 1 0 -6 -28 -10 -70 -9 -39 1 -73 -2 -76 -7 -3 -6 -10 -6 -17 -1 -7 5
-39 9 -72 9 -33 0 -65 -4 -72 -9 -7 -5 -14 -5 -17 1 -4 5 -20 8 -36 6 -22 -3
-29 -1 -24 8 5 9 4 9 -6 0 -8 -7 -20 -9 -35 -3 -13 5 -26 6 -29 2 -11 -11
-110 -9 -125 2 -11 8 -13 8 -7 -2 6 -9 1 -11 -18 -8 -25 5 -31 -2 -27 -33 2
-8 -2 -10 -10 -5 -8 5 -10 3 -4 -7 11 -17 16 -61 6 -55 -4 3 -8 -1 -8 -9 0 -8
4 -12 9 -9 12 8 10 -10 -3 -23 -8 -8 -7 -13 2 -18 8 -6 10 -4 4 5 -5 9 -4 11
4 6 9 -6 9 -11 0 -22 -6 -8 -9 -17 -6 -21 4 -3 2 -14 -3 -24 -7 -12 -6 -20 2
-25 7 -5 8 -3 3 6 -5 9 -4 11 4 6 8 -5 9 -12 2 -20 -6 -6 -8 -26 -6 -44 2 -19
0 -30 -5 -27 -6 3 -7 -1 -4 -9 3 -9 11 -13 18 -10 6 3 2 -2 -8 -10 -11 -9 -16
-16 -10 -16 5 0 10 -13 10 -30 1 -16 -3 -30 -8 -30 -5 0 -6 -5 -3 -10 10 -16
15 -71 6 -66 -4 3 -8 -1 -8 -9 0 -8 4 -12 7 -10 4 3 8 -6 8 -20 0 -14 -4 -22
-9 -19 -5 3 -6 -2 -3 -10 3 -9 11 -13 18 -10 6 3 2 -2 -8 -10 -13 -10 -15 -16
-7 -16 10 0 11 -3 2 -14 -9 -11 -9 -16 0 -22 8 -5 9 -3 4 6 -5 9 -4 11 4 6 9
-6 9 -11 0 -22 -6 -8 -9 -17 -6 -21 4 -3 2 -14 -3 -24 -7 -12 -6 -20 2 -25 7
-5 8 -3 3 6 -5 9 -4 11 4 6 8 -5 9 -12 2 -20 -5 -6 -8 -30 -6 -54 2 -23 -1
-42 -6 -42 -6 0 -7 -5 -4 -10 10 -16 15 -71 6 -66 -4 3 -8 -1 -8 -9 0 -8 3
-12 7 -10 4 2 7 -11 7 -30 0 -19 -4 -35 -9 -35 -5 0 -6 -5 -3 -10 10 -16 15
-71 6 -66 -4 3 -8 -1 -8 -9 0 -8 4 -12 9 -9 12 8 10 -10 -3 -23 -8 -8 -7 -13
2 -18 8 -6 10 -4 4 5 -5 9 -4 11 4 6 9 -6 9 -11 0 -22 -6 -8 -9 -17 -6 -21 4
-3 2 -14 -3 -24 -7 -12 -6 -20 2 -25 7 -5 8 -3 3 6 -5 9 -4 11 4 6 8 -5 9 -12
2 -20 -6 -6 -8 -26 -6 -44 2 -19 0 -30 -5 -27 -6 3 -7 -1 -4 -9 3 -9 11 -13
18 -10 6 3 2 -2 -8 -10 -11 -9 -16 -16 -10 -16 5 0 10 -13 10 -30 1 -16 -3
-30 -8 -30 -5 0 -6 -5 -3 -10 10 -16 15 -71 6 -66 -4 3 -8 -1 -8 -9 0 -8 4
-12 7 -10 4 3 8 -6 8 -20 0 -14 -4 -22 -9 -19 -5 3 -6 -2 -3 -10 3 -9 11 -13
18 -10 6 3 2 -2 -8 -10 -13 -10 -15 -16 -7 -16 10 0 11 -3 2 -14 -9 -11 -9
-16 0 -22 8 -5 9 -3 4 6 -5 9 -4 11 4 6 9 -6 9 -11 0 -22 -6 -8 -9 -17 -6 -21
4 -3 2 -14 -3 -24 -7 -12 -6 -20 2 -25 7 -5 8 -3 3 6 -5 9 -4 11 4 6 8 -5 9
-12 2 -20 -5 -6 -8 -30 -6 -54 2 -23 -1 -42 -6 -42 -6 0 -7 -5 -4 -10 10 -16
15 -71 6 -66 -4 3 -8 -1 -8 -9 0 -8 3 -12 7 -10 4 2 7 -11 7 -30 0 -19 -4 -35
-9 -35 -5 0 -6 -5 -3 -10 10 -16 15 -71 6 -66 -4 3 -8 -1 -8 -9 0 -8 4 -12 9
-9 12 8 10 -10 -3 -23 -8 -8 -7 -13 2 -18 8 -6 10 -4 4 5 -5 9 -4 11 4 6 9 -6
9 -11 0 -22 -6 -8 -9 -17 -6 -21 4 -3 2 -14 -3 -24 -7 -12 -6 -20 2 -25 7 -5
8 -3 3 6 -5 9 -4 11 4 6 8 -5 9 -12 2 -20 -6 -6 -8 -26 -6 -44 2 -19 0 -30 -5
-27 -6 3 -7 -1 -4 -9 3 -9 11 -13 18 -10 6 3 2 -2 -8 -10 -11 -9 -16 -16 -10
-16 5 0 10 -13 10 -30 1 -16 -3 -30 -8 -30 -5 0 -6 -5 -3 -10 10 -16 15 -71 6
-66 -4 3 -8 -1 -8 -9 0 -8 4 -12 7 -10 4 3 7 -6 8 -20 0 -14 -4 -22 -9 -19 -5
3 -6 -2 -3 -10 3 -9 11 -13 18 -10 6 3 2 -2 -8 -10 -13 -10 -15 -16 -7 -16 10
0 11 -3 2 -14 -9 -11 -9 -16 0 -22 8 -5 9 -3 4 6 -5 9 -4 11 4 6 9 -6 9 -11 0
-22 -6 -8 -9 -17 -6 -21 4 -3 2 -14 -3 -24 -7 -12 -6 -20 2 -25 7 -5 8 -3 3 6
-5 9 -4 11 4 6 8 -5 9 -12 2 -20 -5 -6 -8 -30 -6 -54 2 -23 -1 -42 -6 -42 -6
0 -7 -5 -4 -10 10 -16 15 -71 6 -66 -4 3 -8 -1 -8 -9 0 -8 3 -12 7 -10 4 2 7
-11 7 -30 0 -19 -4 -35 -9 -35 -5 0 -6 -5 -3 -10 10 -16 15 -71 6 -66 -4 3 -8
-1 -8 -9 0 -8 4 -12 9 -9 12 8 10 -10 -3 -23 -8 -8 -7 -13 2 -18 8 -6 10 -4 4
5 -5 9 -4 11 4 6 9 -6 9 -11 0 -22 -6 -8 -9 -17 -6 -21 4 -3 2 -14 -3 -24 -7
-12 -6 -20 2 -25 7 -5 8 -3 3 6 -5 9 -4 11 4 6 8 -5 9 -12 2 -20 -6 -6 -8 -26
-6 -44 2 -19 0 -30 -5 -27 -6 3 -7 -1 -4 -9 3 -9 11 -13 18 -10 6 3 2 -2 -8
-10 -11 -9 -16 -16 -10 -16 5 0 10 -13 10 -30 1 -16 -3 -30 -8 -30 -5 0 -6 -5
-3 -10 10 -16 15 -71 6 -66 -4 3 -8 -1 -8 -9 0 -8 4 -12 7 -10 4 3 8 -6 8 -20
0 -14 -4 -22 -9 -19 -5 3 -6 -2 -3 -10 3 -9 11 -13 18 -10 6 3 2 -2 -8 -10
-13 -10 -15 -16 -7 -16 10 0 11 -3 2 -14 -9 -11 -9 -16 0 -22 8 -5 9 -3 4 6
-5 9 -4 11 4 6 9 -6 9 -11 0 -22 -6 -8 -9 -17 -6 -21 4 -3 2 -14 -3 -24 -7
-12 -6 -20 2 -25 7 -5 8 -3 3 6 -5 9 -4 11 4 6 8 -5 9 -12 2 -20 -5 -6 -8 -30
-6 -54 2 -23 -1 -42 -6 -42 -6 0 -7 -5 -4 -10 10 -16 15 -71 6 -66 -4 3 -8 -1
-8 -9 0 -8 3 -12 7 -10 4 2 7 -11 7 -30 0 -19 -4 -35 -9 -35 -5 0 -6 -5 -3
-10 10 -16 15 -71 6 -66 -4 3 -8 -1 -8 -9 0 -8 4 -12 9 -9 12 8 10 -10 -3 -23
-8 -8 -7 -13 2 -18 8 -6 10 -4 4 5 -5 9 -4 11 4 6 9 -6 9 -11 0 -22 -6 -8 -9
-17 -6 -21 4 -3 2 -14 -3 -24 -7 -12 -6 -20 2 -25 7 -5 8 -3 3 6 -5 9 -4 11 4
6 8 -5 9 -12 2 -20 -6 -6 -8 -26 -6 -44 2 -19 0 -30 -5 -27 -6 3 -7 -1 -4 -9
3 -9 11 -13 18 -10 6 3 2 -2 -8 -10 -11 -9 -16 -16 -10 -16 5 0 10 -13 10 -30
1 -16 -3 -30 -8 -30 -5 0 -6 -5 -3 -10 10 -16 15 -71 6 -66 -4 3 -8 -1 -8 -9
0 -8 4 -12 7 -10 4 3 8 -6 8 -20 0 -14 -4 -22 -9 -19 -5 3 -6 -2 -3 -10 3 -9
11 -13 18 -10 6 3 2 -2 -8 -10 -11 -9 -15 -16 -9 -16 6 0 9 -9 5 -22 -4 -16
-2 -19 9 -13 11 7 11 5 -1 -10 -14 -17 -13 -18 3 -12 10 4 17 2 17 -6 0 -8 3
-8 9 2 7 11 9 11 14 0 4 -12 6 -12 6 0 1 11 6 10 21 -4 20 -18 21 -18 13 1 -7
18 -6 18 20 1 20 -13 25 -14 21 -3 -4 11 1 13 29 6 19 -4 41 -11 48 -16 12 -6
12 -5 0 9 -12 15 -12 17 2 11 28 -10 307 -10 311 1 3 6 5 6 5 0 1 -6 27 -10
67 -8 36 1 76 -3 88 -9 19 -10 20 -10 7 6 -12 14 -12 16 2 10 28 -10 307 -10
307 1 0 7 3 7 8 0 10 -14 103 -15 95 -1 -4 6 1 5 10 -3 12 -9 17 -10 17 -2 0
7 5 9 10 6 6 -3 10 1 10 9 0 8 6 19 12 23 7 4 22 24 32 43 24 43 42 61 50 52
4 -3 4 2 0 12 -5 14 -4 17 4 12 7 -4 12 -3 12 3 0 5 11 22 25 37 13 14 22 31
19 36 -3 4 0 7 8 6 7 -2 12 5 12 15 -1 9 1 17 5 17 4 0 23 19 41 42 19 23 27
38 19 34 -8 -4 -5 0 6 9 11 9 19 21 17 27 -1 5 6 12 17 15 13 3 18 10 14 21
-5 11 -3 13 7 7 10 -6 12 -4 7 8 -4 10 -2 16 5 14 7 -1 12 3 13 10 0 7 9 19
20 27 11 9 17 16 13 16 -4 0 4 12 17 26 14 15 22 31 18 37 -3 6 -1 7 5 3 7 -4
12 -1 12 8 0 8 5 18 12 22 7 5 8 3 3 -6 -5 -9 -4 -11 4 -6 6 4 9 11 6 16 -3 5
6 21 20 36 30 32 30 37 8 55 -11 10 -14 10 -9 2 8 -15 -3 -17 -24 -3 -9 5 -19
5 -27 -2 -10 -8 -13 -7 -13 3 0 10 -3 10 -12 1 -6 -6 -18 -8 -27 -4 -20 9 -42
9 -58 -1 -8 -5 -13 -3 -13 4 0 9 -3 9 -14 0 -11 -9 -15 -9 -19 1 -4 10 -6 10
-6 -1 -1 -11 -4 -11 -16 -1 -12 10 -15 10 -15 0 0 -10 -3 -10 -15 0 -12 10
-15 10 -15 -1 0 -11 -2 -11 -10 1 -8 12 -10 12 -10 1 0 -9 -4 -10 -12 -5 -16
11 -68 11 -85 1 -8 -5 -13 -3 -13 3 0 6 -5 8 -11 4 -8 -4 -9 0 -4 15 4 14 2
21 -7 21 -10 0 -10 2 1 9 9 6 10 10 2 16 -9 5 -9 10 0 21 9 11 8 14 -2 14 -12
0 -12 2 0 9 7 5 9 11 4 14 -10 6 -10 48 0 64 4 7 3 14 -3 18 -6 4 -7 12 -3 18
14 22 14 49 1 41 -9 -5 -9 -2 1 9 9 12 10 17 2 17 -7 0 -9 5 -4 12 12 21 12
38 0 38 -8 0 -7 3 2 9 9 6 10 11 2 15 -8 5 -8 13 -1 27 8 14 7 19 -2 19 -10 0
-10 2 0 9 17 11 17 21 0 32 -10 7 -10 9 0 9 9 0 10 5 2 19 -7 14 -7 22 0 26 8
5 8 11 1 19 -6 7 -8 16 -4 20 4 3 8 16 10 27 2 14 -1 18 -9 13 -9 -5 -9 -2 1
9 9 12 10 17 2 17 -7 0 -9 5 -4 13 12 20 12 37 0 37 -8 0 -7 3 2 9 9 6 10 11
2 15 -8 5 -8 13 -1 27 8 14 7 19 -2 19 -10 0 -10 2 0 9 17 11 17 21 0 32 -7 5
-8 9 -2 9 12 0 12 28 1 47 -4 6 -3 15 3 18 8 5 8 11 0 20 -8 10 -8 15 1 20 8
6 7 10 -2 16 -11 7 -11 9 -1 9 8 0 10 5 6 12 -10 16 -10 50 -1 65 4 6 3 14 -3
18 -6 4 -7 12 -3 18 14 22 14 49 1 41 -9 -5 -9 -2 1 9 10 13 10 17 1 17 -9 0
-9 4 -2 13 15 18 15 29 0 38 -10 7 -10 9 0 9 8 0 10 5 6 12 -14 23 -11 48 8
65 10 9 18 12 18 7 0 -5 27 -9 60 -9 33 0 60 2 60 5 0 7 137 3 149 -5 6 -3 11
-3 11 2 0 9 134 8 149 -2 6 -3 11 -3 11 2 0 10 104 8 121 -3 8 -5 9 -3 4 5 -6
10 -3 11 13 2 15 -8 22 -8 25 2 4 9 8 9 15 -2 8 -11 10 -11 15 0 4 11 6 11 6
1 1 -7 6 -10 12 -7 15 10 134 9 149 0 9 -6 11 -4 5 5 -6 10 -4 10 11 2 14 -8
21 -6 32 6 7 10 11 12 8 6 -3 -7 1 -14 9 -18 8 -3 15 -2 15 3 0 5 18 5 40 1
22 -4 40 -4 40 -1 0 9 65 5 81 -4 8 -6 10 -4 4 4 -6 10 -3 11 13 2 15 -8 22
-8 26 2 5 9 7 9 12 -2 5 -11 8 -11 15 0 7 11 9 11 9 1 0 -7 5 -10 11 -7 15 10
134 9 149 0 9 -6 11 -4 5 4 -6 10 -3 11 14 2 16 -9 21 -9 21 0 0 6 7 9 15 5
15 -5 55 26 55 43 0 5 7 12 16 15 8 3 12 11 9 16 -4 6 -1 9 6 8 7 -2 13 2 14
9 0 6 11 21 24 32 13 12 20 21 16 21 -5 0 -1 6 10 13 10 8 15 19 11 25 -5 8
-2 10 8 6 10 -4 16 -1 16 9 0 8 10 22 23 31 12 9 15 14 7 11 -10 -4 -9 -2 2 8
10 8 15 17 11 20 -3 4 -1 7 6 7 12 0 61 44 61 55 0 3 11 16 23 28 13 12 22 28
20 35 -3 7 1 11 9 10 7 -2 12 3 11 10 -3 11 9 16 29 13 5 0 7 2 6 7 -3 14 19
57 28 53 5 -2 16 11 24 28 9 17 18 29 21 26 4 -3 18 13 33 35 14 22 31 40 37
40 5 0 8 4 5 8 -3 5 6 16 20 26 13 11 24 23 24 29 0 6 14 23 31 38 17 15 28
33 24 39 -3 6 -3 10 2 9 17 -3 33 1 31 9 -2 4 5 18 15 32 9 13 17 20 17 15 0
-10 44 35 46 47 1 5 2 13 3 19 0 5 5 7 11 4 6 -4 7 1 3 11 -4 12 -3 15 5 10 7
-4 12 -4 12 1 0 4 14 23 31 41 16 17 27 37 24 42 -4 6 -3 10 2 9 20 -3 34 2
28 11 -3 6 1 13 9 16 9 3 14 10 11 14 -3 5 4 12 16 15 11 4 18 9 15 12 -3 3 5
14 17 25 12 11 15 17 7 13 -8 -4 -6 1 4 9 11 9 24 16 29 16 5 0 7 7 4 14 -4 9
2 17 14 21 10 4 19 13 19 21 0 8 4 13 8 10 5 -3 16 4 25 15 10 10 12 19 6 19
-8 0 -7 5 1 15 7 8 19 15 26 15 8 0 11 6 8 15 -5 11 -2 13 12 8 12 -4 15 -3
10 5 -4 7 -2 12 5 12 7 0 10 3 6 6 -3 3 4 16 17 28 12 11 25 29 29 39 4 10 11
15 17 12 10 -6 15 9 10 30 -1 5 1 7 5 3 9 -8 35 14 28 25 -2 4 3 7 12 7 9 0
14 4 11 9 -8 12 49 73 59 63 4 -4 6 0 3 9 -4 9 5 24 23 38 16 13 27 27 24 31
-3 5 4 11 15 15 11 4 18 11 15 16 -4 5 1 9 10 9 9 0 13 5 10 10 -3 6 -1 10 4
10 6 0 10 3 9 8 -4 9 45 58 54 55 4 -2 5 4 2 12 -4 10 0 15 11 15 11 0 15 5
12 14 -4 9 2 17 14 21 10 4 19 11 19 16 0 5 15 23 33 40 17 17 31 36 29 41 -1
5 2 7 8 3 5 -3 10 -1 10 6 0 10 3 10 12 1 9 -9 16 -8 32 6 11 9 16 12 13 6 -9
-15 20 -27 29 -12 5 7 2 8 -6 3 -9 -5 -11 -4 -6 4 6 9 11 9 22 0 11 -9 17 -9
28 0 9 8 16 8 20 2 4 -6 23 -9 44 -8 20 2 49 0 64 -4 17 -5 30 -3 34 3 5 7 2
8 -6 3 -9 -5 -11 -4 -6 4 6 9 11 9 22 0 11 -9 17 -9 28 0 8 7 17 8 20 3 3 -5
22 -8 43 -8 21 1 50 -1 65 -5 17 -5 30 -3 34 3 5 7 2 8 -6 3 -8 -5 -11 -4 -6
3 9 15 38 3 29 -12 -3 -6 4 -2 17 9 13 11 20 15 17 9 -9 -15 20 -27 29 -12 5
7 2 8 -6 3 -9 -5 -11 -4 -6 4 6 9 11 9 22 0 10 -8 18 -8 27 -1 8 7 18 7 27 2
8 -5 21 -5 29 -2 9 4 31 7 49 7 17 0 32 2 32 5 0 3 8 6 18 7 41 3 58 9 70 23
8 8 11 9 7 3 -4 -9 -1 -11 9 -7 9 3 13 11 9 17 -4 6 -1 7 6 3 7 -5 21 0 33 11
12 10 18 12 14 6 -5 -9 -2 -11 8 -7 9 3 13 11 9 17 -4 6 -1 7 6 3 7 -5 19 0
27 10 9 11 13 13 9 7 -10 -20 2 -15 26 10 12 12 19 16 15 10 -5 -9 -2 -11 8
-7 9 3 13 10 10 15 -5 8 9 13 29 10 4 0 7 4 7 10 0 6 7 8 16 5 8 -3 13 -2 10
3 -3 5 1 12 10 15 8 3 12 11 8 17 -4 8 -3 9 4 5 13 -8 56 17 46 26 -3 4 4 9
15 13 12 3 19 11 16 16 -4 5 -2 9 4 9 6 0 7 7 4 17 -5 12 -3 14 7 8 9 -6 11
-4 5 5 -4 7 -2 16 6 20 10 7 10 11 0 24 -11 13 -11 16 0 16 11 0 11 2 -1 10
-9 6 -11 10 -3 10 7 0 10 7 7 15 -4 8 -10 12 -15 9 -5 -3 -6 1 -3 9 3 8 0 18
-5 22 -6 3 -9 10 -6 15 3 5 0 12 -6 16 -8 5 -9 3 -4 -7 5 -8 -4 -1 -18 14 -15
15 -27 32 -27 38 0 5 -8 9 -18 9 -10 0 -24 9 -32 20 -8 11 -20 20 -27 20 -6 0
-19 10 -27 22 -10 14 -16 17 -16 8 0 -9 -5 -8 -15 6 -8 10 -15 15 -15 11 0 -4
-9 1 -21 12 -12 11 -27 17 -35 14 -8 -3 -14 0 -14 6 0 6 -6 8 -14 5 -8 -3 -17
-1 -21 5 -3 6 -15 11 -26 11 -10 0 -19 6 -19 13 0 8 -4 7 -10 -3 -7 -12 -10
-12 -10 -1 0 7 -6 11 -14 8 -8 -3 -20 1 -26 8 -7 8 -17 12 -24 8 -17 -11 -36
-12 -36 -3 0 5 -8 7 -17 5 -10 -1 -26 2 -37 7 -12 7 -16 7 -12 0 3 -5 -5 -9
-19 -9 -14 0 -22 4 -18 10 4 6 1 7 -6 2 -17 -10 -131 -13 -131 -3 0 4 -7 5
-16 1 -26 -10 -257 -10 -278 0 -11 5 -16 5 -13 0 3 -5 -31 -9 -78 -8 -46 0
-81 4 -78 8 3 5 -4 11 -16 14 -12 3 -22 9 -22 14 -1 5 -2 15 -3 22 0 6 -6 12
-11 12 -6 0 -22 11 -35 24 -14 13 -19 21 -13 17 9 -5 11 -2 7 8 -3 9 -10 13
-15 10 -5 -3 -9 -1 -9 4 0 5 -17 26 -37 48 -21 21 -31 34 -23 30 8 -5 2 3 -14
18 -16 14 -26 26 -21 26 4 0 -4 9 -19 21 -14 11 -26 27 -26 35 0 8 -6 14 -13
14 -13 0 -43 40 -39 53 1 4 -5 7 -13 7 -8 0 -15 6 -15 14 0 8 -13 24 -30 36
-16 12 -30 28 -30 36 0 8 -7 14 -16 14 -11 0 -14 5 -10 16 4 11 -1 18 -14 21
-11 3 -20 12 -20 20 0 8 -4 11 -10 8 -5 -3 -10 3 -10 14 0 11 -9 22 -20 26
-18 6 -21 11 -20 31 1 3 -13 17 -30 32 -16 14 -30 30 -30 35 0 13 -27 37 -34
30 -3 -4 -6 -1 -6 5 0 14 -21 41 -67 87 -18 17 -33 36 -33 41 0 5 -9 16 -20
24 -11 8 -20 18 -20 23 0 13 -27 37 -34 30 -6 -6 -10 12 -7 30 1 5 -3 6 -9 2
-5 -3 -10 1 -10 10 0 9 -4 13 -10 10 -5 -3 -10 -1 -10 6 0 6 -10 20 -22 30
-11 11 -17 19 -13 19 4 0 -2 8 -13 19 -12 10 -19 21 -15 25 3 3 -1 6 -11 6 -9
0 -15 4 -12 8 3 5 -4 15 -15 22 -10 8 -19 18 -19 23 0 11 -26 37 -32 32 -3 -3
-11 7 -19 23 -8 15 -26 39 -41 54 -16 14 -28 33 -28 43 0 9 -3 14 -7 12 -5 -2
-16 4 -25 15 -10 10 -16 18 -13 18 3 0 -8 14 -23 30 -16 17 -35 30 -43 30 -11
0 -11 2 1 10 10 6 11 10 3 10 -7 0 -13 7 -13 16 0 8 -4 13 -9 9 -6 -3 -15 5
-22 17 -7 13 -24 34 -39 48 -14 14 -29 33 -33 43 -3 9 -11 17 -16 17 -5 0 -13
9 -16 20 -3 11 -13 20 -21 20 -8 0 -13 4 -10 8 3 5 -4 15 -15 22 -10 8 -19 18
-19 23 0 14 -27 37 -35 29 -4 -4 -5 -2 -3 4 3 12 -50 68 -72 75 -8 3 -31 2
-50 -1z m-1326 -2451 c8 7 17 8 20 3 3 -5 22 -8 43 -8 21 1 50 -1 65 -5 17 -5
30 -3 34 3 5 7 2 8 -6 3 -9 -5 -11 -4 -6 4 6 9 11 9 23 0 12 -10 16 -10 24 2
6 10 9 11 9 1 0 -9 10 -12 29 -9 23 4 28 2 24 -9 -3 -8 -10 -14 -17 -14 -6 0
-4 -5 4 -10 8 -5 10 -10 5 -10 -6 0 -16 -9 -23 -21 -8 -12 -9 -18 -3 -14 6 3
11 1 11 -4 0 -6 -5 -11 -11 -11 -5 0 -7 -4 -4 -10 3 -5 1 -10 -4 -10 -6 0 -10
-3 -10 -7 3 -17 -14 -73 -22 -73 -5 0 -9 -5 -9 -11 0 -5 6 -7 13 -4 6 4 4 0
-7 -9 -10 -8 -15 -19 -11 -25 3 -6 1 -11 -6 -11 -7 0 -9 -3 -6 -7 4 -3 -1 -12
-11 -20 -16 -12 -16 -13 3 -7 20 6 20 5 1 -10 -11 -9 -16 -16 -12 -16 5 0 3
-6 -3 -13 -6 -8 -8 -17 -4 -20 3 -4 1 -7 -6 -7 -7 0 -9 -5 -6 -10 4 -6 -3 -26
-15 -45 -16 -25 -18 -35 -8 -35 8 -1 6 -6 -6 -15 -12 -9 -15 -15 -7 -15 7 0 3
-9 -10 -20 -21 -18 -22 -19 -4 -14 17 5 18 4 5 -8 -16 -14 -23 -31 -24 -60 0
-10 -4 -18 -9 -18 -5 0 -4 -6 2 -14 9 -11 9 -15 -1 -18 -8 -3 -5 -9 10 -17 13
-7 22 -8 22 -2 0 6 7 8 15 5 8 -4 17 1 21 10 3 9 11 13 17 9 7 -4 8 0 4 11 -6
14 -3 17 8 12 9 -3 13 -2 10 4 -3 6 1 13 9 16 9 3 13 10 10 15 -3 5 2 12 10
15 9 3 16 12 16 20 0 8 4 13 9 12 5 -2 9 1 9 5 1 5 12 19 27 33 14 13 23 29
20 34 -3 6 3 10 15 10 12 0 19 4 15 9 -3 6 4 15 15 21 11 6 20 15 20 21 0 5 5
15 10 22 6 7 18 21 26 32 9 11 12 14 8 6 -5 -9 -3 -12 4 -7 7 4 12 14 12 21 0
8 9 19 20 25 11 6 20 16 20 22 0 5 18 27 39 48 22 21 37 41 33 44 -3 3 0 6 6
6 7 0 12 6 12 14 0 7 16 26 35 40 19 15 35 31 35 37 0 5 11 21 25 35 14 14 25
30 25 36 0 7 5 7 14 -1 11 -9 15 -9 18 0 3 9 9 9 25 0 17 -8 24 -8 29 1 5 7 3
8 -6 3 -9 -5 -11 -4 -6 4 6 9 11 9 22 0 11 -9 17 -9 28 0 9 8 16 8 20 2 4 -6
23 -9 44 -8 20 2 49 0 64 -4 17 -5 30 -3 34 3 5 7 2 8 -6 3 -9 -5 -11 -4 -6 4
6 9 11 9 22 0 10 -8 18 -9 27 0 8 6 17 7 21 3 4 -4 39 -8 77 -8 37 -1 75 -4
83 -7 9 -4 18 -1 22 5 5 7 2 8 -6 3 -9 -5 -11 -4 -6 4 6 9 11 9 22 0 11 -9 17
-9 28 0 10 9 16 9 21 1 4 -6 13 -9 20 -6 8 3 28 1 44 -4 20 -6 33 -5 37 2 5 7
2 8 -6 3 -9 -5 -11 -4 -6 4 6 9 11 9 22 0 11 -9 17 -9 28 0 10 9 16 9 21 1 4
-6 13 -9 20 -6 8 3 28 1 44 -4 20 -6 33 -5 37 2 5 7 2 8 -6 3 -9 -5 -11 -4 -6
4 6 9 11 9 22 0 11 -9 17 -9 28 0 10 9 16 9 21 1 4 -6 13 -9 20 -6 8 3 28 1
44 -4 20 -6 33 -5 37 2 5 7 2 8 -6 3 -9 -5 -11 -4 -6 4 6 9 11 9 22 0 11 -9
17 -9 28 0 10 9 16 9 21 1 4 -6 13 -9 20 -6 8 3 28 1 45 -4 19 -5 28 -5 25 1
-4 5 -2 9 4 9 18 0 41 -12 41 -22 0 -5 -6 -6 -12 -2 -9 5 -9 2 1 -9 11 -13 11
-17 1 -17 -8 0 -11 -3 -7 -6 3 -3 -3 -22 -14 -41 -11 -19 -14 -31 -7 -27 6 4
2 -7 -11 -25 -18 -25 -20 -35 -11 -46 10 -12 9 -15 -4 -15 -10 0 -15 -4 -11
-9 3 -5 1 -12 -5 -16 -6 -4 -8 -11 -5 -16 4 -5 1 -9 -5 -9 -6 0 -8 -4 -5 -10
3 -5 -1 -20 -8 -32 -8 -13 -14 -33 -13 -45 2 -13 -2 -19 -10 -16 -9 3 -12 -2
-9 -16 2 -12 0 -21 -5 -21 -5 0 -7 -7 -4 -15 4 -10 0 -15 -12 -16 -11 0 -14
-3 -8 -5 8 -3 6 -18 -8 -45 -11 -23 -17 -43 -14 -46 3 -4 -2 -12 -12 -20 -10
-9 -11 -11 -2 -7 13 7 13 5 2 -9 -8 -9 -11 -20 -8 -25 3 -6 -1 -15 -9 -22 -8
-7 -15 -23 -15 -37 0 -13 -4 -21 -10 -18 -6 3 -7 -1 -4 -9 3 -9 2 -16 -4 -16
-6 0 -9 -11 -8 -25 2 -13 -1 -22 -5 -19 -8 5 -10 -1 -13 -38 -1 -7 -7 -18 -15
-24 -8 -6 -12 -18 -8 -27 3 -9 1 -17 -4 -19 -6 -2 -12 -12 -14 -23 -2 -11 -4
-21 -5 -22 -2 -2 -4 -7 -5 -13 -1 -5 -3 -12 -4 -15 0 -3 -1 -8 0 -12 0 -3 -6
-10 -14 -15 -10 -5 -13 -16 -9 -30 3 -13 1 -19 -6 -15 -6 4 -9 0 -8 -10 2 -9
-3 -28 -11 -42 -7 -15 -13 -32 -13 -38 0 -7 -4 -13 -10 -13 -5 0 -10 -5 -10
-11 0 -5 5 -7 11 -3 6 3 4 -5 -5 -18 -9 -14 -13 -28 -9 -31 3 -4 1 -7 -5 -7
-7 0 -12 -11 -12 -24 0 -34 -25 -53 -47 -35 -9 8 -14 9 -10 3 4 -7 0 -14 -8
-18 -8 -3 -16 -2 -19 2 -5 9 -94 7 -103 -2 -4 -3 -15 2 -26 11 -11 10 -18 13
-14 7 4 -7 -11 -11 -45 -11 -33 -1 -46 2 -37 8 16 10 8 12 -15 3 -9 -3 -14 -9
-11 -14 2 -4 -7 -5 -20 -2 -14 2 -28 8 -30 13 -3 4 -12 6 -20 3 -8 -4 -13 -10
-10 -14 3 -5 -7 -5 -22 -1 -32 8 -96 7 -111 -3 -6 -3 -14 -1 -18 5 -5 8 -3 9
6 4 9 -5 11 -4 6 4 -5 8 -12 9 -19 2 -7 -5 -27 -8 -45 -7 -17 1 -38 -1 -44 -5
-7 -5 -21 -1 -32 9 -11 9 -16 12 -13 5 5 -8 -5 -11 -32 -10 -22 1 -42 5 -46 9
-9 9 -36 -2 -30 -12 2 -4 -7 -5 -20 -2 -14 2 -28 8 -30 13 -3 4 -12 6 -20 3
-8 -4 -13 -10 -10 -14 3 -5 -7 -5 -22 -1 -32 8 -96 7 -111 -3 -6 -3 -13 -3
-16 2 -5 9 -94 8 -103 -2 -4 -3 -15 2 -26 11 -11 10 -18 13 -14 7 4 -7 -11
-11 -45 -11 -33 -1 -46 2 -37 8 16 10 8 12 -15 3 -9 -3 -14 -9 -11 -14 2 -4
-7 -5 -20 -2 -14 2 -28 8 -30 13 -3 4 -12 6 -20 3 -8 -4 -13 -10 -10 -14 3 -5
-7 -5 -22 -1 -16 4 -42 6 -59 4 -25 -3 -33 1 -42 22 -7 15 -8 24 -3 21 10 -7
6 108 -5 125 -5 9 -2 10 11 5 14 -5 15 -4 7 7 -6 7 -10 35 -8 62 1 28 -1 61
-6 74 -7 19 -6 22 8 17 13 -5 14 -3 6 6 -5 7 -9 45 -8 83 1 39 -2 78 -7 89 -6
13 -6 16 2 12 15 -10 14 7 -1 23 -9 9 -9 12 -1 7 8 -4 10 6 8 39 -3 25 -7 51
-11 57 -5 8 -1 9 11 4 14 -5 15 -4 7 7 -6 7 -10 35 -8 62 1 28 -1 61 -6 74 -7
19 -6 22 8 17 13 -5 14 -3 6 7 -6 7 -10 35 -8 62 1 28 -1 61 -6 74 -7 19 -6
22 8 17 13 -5 14 -3 6 6 -6 7 -9 49 -8 96 1 46 -2 86 -7 89 -5 3 -4 9 3 13 9
6 9 13 1 28 -10 19 -9 20 19 12 19 -6 32 -5 36 2 5 7 2 8 -6 3 -9 -5 -11 -4
-6 4 6 9 11 9 22 0 11 -9 17 -9 28 0z m576 -83 c0 -2 -8 -10 -17 -17 -16 -13
-17 -12 -4 4 13 16 21 21 21 13z"/>
<path d="M7190 6042 c-6 -2 -7 -8 -4 -14 4 -6 -2 -5 -15 1 -15 8 -21 9 -21 1
0 -6 -5 -8 -12 -3 -21 12 -38 12 -38 0 0 -7 -5 -5 -10 3 -6 9 -10 11 -10 3 0
-7 -7 -10 -15 -7 -9 4 -15 0 -15 -7 0 -11 -3 -11 -10 1 -8 12 -10 12 -10 1 0
-11 -3 -11 -15 -1 -12 10 -18 10 -30 0 -8 -7 -38 -13 -65 -13 -28 -1 -50 -4
-50 -8 0 -3 -11 -5 -25 -4 -14 2 -25 -2 -25 -8 0 -7 -5 -5 -10 3 -6 9 -10 11
-10 3 0 -7 -7 -10 -15 -7 -8 4 -15 1 -15 -6 0 -10 -3 -10 -15 0 -12 10 -15 9
-15 -6 0 -16 -2 -17 -10 -4 -5 8 -10 10 -10 4 0 -6 -6 -11 -12 -11 -7 0 -22
-4 -32 -9 -14 -5 -17 -4 -12 4 4 7 2 12 -3 12 -6 0 -11 -4 -11 -9 0 -5 -7 -12
-16 -15 -10 -4 -13 -2 -8 7 4 6 -2 3 -14 -7 -12 -11 -22 -15 -22 -10 0 5 -5 2
-10 -6 -8 -12 -10 -12 -10 -1 0 11 -3 11 -15 1 -8 -7 -15 -9 -15 -5 0 4 -7 2
-15 -5 -8 -7 -15 -9 -15 -5 0 4 -8 1 -17 -6 -15 -12 -16 -12 -8 1 8 13 7 13
-8 1 -9 -7 -17 -10 -17 -5 0 5 -4 3 -9 -4 -4 -7 -18 -14 -29 -15 -12 -1 -22
-5 -22 -9 0 -4 -7 -5 -15 -2 -8 4 -15 1 -15 -6 0 -6 -4 -9 -9 -5 -5 3 -12 1
-16 -5 -4 -6 -10 -8 -15 -5 -5 3 -24 -3 -43 -14 -19 -11 -38 -17 -41 -14 -3 4
-6 1 -6 -6 0 -7 -4 -9 -10 -6 -11 7 -68 -22 -88 -45 -12 -13 -13 -12 -8 5 5
17 4 18 -6 4 -12 -14 -41 -29 -54 -28 -4 0 -10 -3 -13 -8 -3 -4 -15 -15 -25
-23 -18 -13 -19 -13 -11 0 5 9 0 8 -13 -4 -12 -11 -22 -15 -22 -11 0 5 -7 0
-15 -11 -8 -10 -15 -15 -15 -10 0 6 -7 1 -16 -10 -8 -10 -13 -12 -9 -4 5 12 4
12 -7 -1 -7 -9 -19 -14 -25 -12 -7 3 -16 -2 -19 -11 -3 -9 -11 -16 -16 -16 -6
0 -17 -8 -25 -17 -8 -10 -11 -12 -8 -4 5 9 -1 8 -19 -4 -14 -10 -26 -22 -26
-27 0 -5 -4 -6 -10 -3 -5 3 -10 1 -10 -4 0 -6 -7 -11 -15 -11 -8 0 -15 -4 -15
-10 0 -5 -7 -10 -16 -10 -8 0 -13 -4 -10 -8 2 -4 -8 -13 -23 -20 -15 -7 -37
-21 -48 -31 -12 -11 -24 -17 -27 -13 -4 3 -4 -2 0 -12 5 -14 4 -17 -4 -12 -8
5 -11 0 -8 -16 2 -13 -1 -28 -6 -35 -6 -7 -4 -16 5 -25 12 -11 12 -15 -2 -26
-9 -7 -11 -11 -4 -8 8 4 11 -4 9 -26 -2 -18 2 -39 8 -47 8 -11 8 -13 0 -8 -7
4 -14 0 -18 -8 -3 -8 -1 -17 5 -21 6 -4 5 -12 -3 -22 -8 -9 -8 -13 -2 -9 7 4
15 0 18 -9 3 -8 2 -13 -3 -10 -5 3 -11 -1 -15 -9 -3 -8 -1 -17 5 -21 6 -4 5
-12 -3 -22 -8 -9 -8 -13 -2 -9 7 4 15 0 18 -9 3 -8 2 -13 -3 -10 -5 3 -11 -1
-15 -9 -3 -8 -1 -17 5 -21 6 -4 5 -12 -3 -22 -8 -9 -8 -13 -2 -9 7 4 15 0 18
-9 3 -8 2 -13 -3 -10 -5 3 -11 -1 -15 -9 -3 -8 -1 -17 5 -21 6 -4 6 -11 -1
-19 -14 -17 -4 -38 13 -28 7 4 6 0 -2 -10 -7 -9 -10 -17 -6 -17 4 0 2 -6 -4
-14 -8 -10 -9 -16 -1 -21 6 -3 7 -11 4 -17 -4 -6 0 -14 7 -19 11 -7 9 -9 -6
-9 -12 0 -16 -3 -9 -8 12 -8 13 -50 1 -69 -4 -6 -1 -18 6 -25 12 -11 12 -15
-2 -26 -9 -7 -11 -11 -4 -8 8 4 11 -4 9 -26 -2 -18 2 -39 8 -47 8 -11 8 -13 0
-8 -7 4 -14 0 -18 -8 -3 -8 -1 -17 5 -21 7 -4 6 -10 -1 -19 -8 -10 -8 -15 0
-20 8 -5 7 -11 -2 -23 -10 -12 -10 -14 0 -8 7 4 12 2 12 -8 0 -8 -5 -18 -10
-21 -8 -5 -8 -11 -1 -19 7 -9 7 -17 -2 -26 -9 -10 -9 -11 1 -6 7 4 12 2 12 -6
0 -8 -6 -20 -12 -27 -10 -11 -10 -13 0 -7 15 9 17 -20 2 -29 -8 -5 -8 -11 -1
-19 6 -7 8 -15 6 -18 -8 -8 27 -3 48 6 10 5 16 15 13 22 -3 8 -1 14 5 14 6 0
7 5 4 10 -3 6 -1 10 5 10 6 0 8 5 5 10 -3 6 1 13 9 16 9 3 16 14 16 24 0 10 7
21 16 24 8 3 12 10 9 16 -3 5 -1 10 5 10 6 0 9 4 6 9 -3 5 1 12 10 15 9 4 14
9 11 12 -3 3 9 20 26 37 18 17 31 35 30 39 -2 4 6 12 17 18 11 6 18 15 15 20
-3 5 7 16 22 24 15 8 27 17 26 20 -6 12 -3 26 5 25 19 -3 33 2 27 11 -3 6 -1
10 5 10 6 0 8 5 5 10 -3 6 -1 10 4 10 6 0 30 18 54 40 23 22 59 56 79 75 20
19 40 35 45 35 5 0 15 9 23 20 10 14 16 16 22 7 5 -8 8 -4 8 10 0 15 5 21 14
17 7 -3 16 2 20 11 3 10 12 15 21 11 8 -3 14 0 12 7 -1 7 4 11 11 10 6 -2 12
2 12 7 0 6 6 10 14 10 8 0 18 5 22 12 5 7 3 8 -6 3 -8 -5 -11 -4 -6 3 4 6 13
9 21 5 8 -3 15 -1 15 4 0 5 18 17 40 27 22 10 38 22 35 27 -4 5 2 6 11 2 10
-3 22 0 28 8 6 8 22 20 35 27 19 11 22 11 15 0 -4 -7 5 -2 19 11 17 15 27 19
27 11 0 -8 8 -4 19 9 11 12 22 22 26 21 3 -1 16 1 28 5 12 4 25 7 30 6 4 -1 7
4 7 10 0 5 5 7 10 4 6 -3 10 -1 10 6 0 7 3 9 7 6 3 -4 13 -1 21 6 13 9 14 9 8
0 -4 -7 -2 -13 3 -13 6 0 11 5 11 11 0 5 5 7 10 4 6 -4 17 -1 25 5 8 7 15 9
15 6 0 -4 7 0 16 9 14 13 19 14 25 3 7 -11 9 -11 9 0 0 7 5 10 10 7 6 -3 10
-2 10 4 0 6 7 8 15 5 8 -4 22 -1 30 6 8 7 15 9 15 5 0 -4 6 -2 13 4 8 6 17 8
20 5 3 -4 14 -3 24 1 18 8 62 15 96 16 9 0 15 4 13 8 -6 10 25 8 43 -3 8 -5
16 -4 21 4 5 7 19 11 34 8 14 -3 26 -2 26 3 0 4 9 6 20 4 11 -2 20 1 20 6 0 6
7 6 19 -1 14 -7 22 -7 27 1 5 8 8 8 14 0 5 -8 14 -9 33 -2 18 7 27 7 31 -2 3
-8 5 -7 5 3 1 12 3 12 9 2 7 -9 15 -10 35 -3 15 6 27 7 27 2 0 -10 31 -8 49 4
10 6 12 4 6 -6 -8 -12 -6 -12 8 0 14 11 17 11 17 0 0 -12 2 -12 9 0 7 10 10
10 13 1 3 -10 9 -10 26 -1 15 8 22 8 22 1 0 -6 4 -9 9 -6 5 4 21 2 36 -4 18
-7 24 -7 19 1 -3 6 8 3 26 -6 20 -10 29 -12 25 -4 -6 8 -4 10 6 4 20 -13 49
-13 49 -1 0 6 4 5 9 -3 5 -8 18 -12 30 -8 12 3 21 1 21 -3 0 -5 11 -7 25 -5
14 1 28 -2 31 -6 3 -5 15 -9 28 -9 12 0 28 -6 35 -12 11 -11 12 -10 6 1 -6 11
-2 10 16 -2 26 -19 43 -22 34 -7 -4 6 4 5 19 -1 14 -7 23 -15 21 -19 -2 -4 7
-5 20 -2 15 2 25 0 25 -7 0 -7 4 -10 9 -6 5 3 13 0 17 -6 4 -8 9 -7 15 2 5 9
9 10 9 3 0 -25 30 -22 60 6 20 19 26 30 18 33 -8 4 -7 6 4 6 12 1 16 8 13 22
-3 12 -2 19 2 15 6 -6 47 73 45 87 -1 4 3 7 9 7 6 0 8 7 5 16 -3 8 -2 12 4 9
6 -3 10 5 10 19 0 14 5 26 11 26 5 0 7 5 4 10 -3 6 -1 10 5 10 6 0 8 5 5 10
-3 6 -3 10 2 10 12 0 35 58 28 70 -4 6 -1 9 7 8 7 -2 12 3 11 10 -2 6 2 12 8
12 6 0 9 7 5 15 -3 8 -1 15 4 15 6 0 10 7 10 15 0 9 6 18 14 21 8 3 13 11 10
19 -3 7 2 19 10 28 8 8 12 17 9 21 -4 3 -1 6 5 6 7 0 11 3 10 8 -1 4 7 26 19
49 l21 42 -25 17 c-14 9 -22 11 -18 4 4 -7 -4 -4 -18 5 -15 9 -30 14 -35 11
-5 -3 -16 4 -26 15 -13 16 -20 18 -31 9 -10 -8 -15 -8 -20 0 -4 7 -16 10 -26
7 -12 -3 -17 -1 -12 6 4 6 0 8 -10 4 -10 -4 -17 -1 -17 5 0 6 -3 8 -7 5 -3 -4
-12 -2 -20 4 -10 9 -13 8 -13 -2 0 -8 -6 -6 -16 7 -8 10 -12 13 -8 5 5 -10 3
-12 -7 -5 -18 11 -38 16 -67 15 -15 -1 -21 3 -16 11 5 7 2 9 -8 5 -9 -3 -21 0
-27 6 -8 8 -11 7 -11 -3 0 -9 -6 -8 -22 6 -12 10 -18 13 -13 5 6 -10 4 -12 -6
-5 -18 11 -34 14 -81 15 -21 1 -38 6 -38 11 0 6 -7 5 -15 -2 -10 -8 -15 -9
-15 -2 0 6 -7 9 -15 6 -9 -4 -15 0 -15 7 0 11 -3 11 -10 -1 -6 -10 -10 -11
-10 -2 0 6 -7 12 -15 12 -8 0 -15 -5 -15 -11 0 -8 -4 -9 -13 0 -8 6 -17 8 -20
4 -4 -3 -7 -1 -7 7 0 9 -3 10 -13 1 -10 -8 -17 -7 -25 1 -7 7 -12 8 -12 2 0
-6 -7 -11 -15 -11 -8 0 -15 5 -15 10 0 5 -7 7 -15 4 -8 -4 -17 -2 -20 3 -4 6
-11 10 -16 10 -6 0 -8 -4 -5 -9 7 -10 -20 -9 -30 2 -12 12 -26 8 -18 -5 5 -10
4 -10 -6 -1 -9 8 -19 9 -31 3 -11 -7 -20 -7 -24 0 -3 5 -11 10 -16 10 -6 0 -7
-6 -3 -12 6 -10 4 -10 -8 0 -11 9 -18 10 -23 2 -3 -6 -11 -7 -17 -4 -11 7
-220 12 -238 6z"/>
<path d="M4712 4713 c-6 -3 -10 -9 -6 -14 3 -5 0 -9 -6 -9 -6 0 -8 -4 -5 -10
3 -5 1 -10 -5 -10 -7 0 -10 -6 -7 -14 4 -10 0 -14 -13 -11 -14 3 -18 -1 -15
-16 2 -11 0 -17 -5 -14 -11 7 -32 -30 -22 -40 4 -5 3 -6 -3 -3 -5 3 -18 -3
-27 -14 -12 -12 -14 -18 -5 -19 6 0 3 -5 -9 -10 -11 -6 -28 -26 -39 -45 -10
-19 -22 -34 -28 -34 -5 0 -7 -9 -4 -20 3 -12 1 -17 -5 -14 -12 8 -38 -27 -31
-41 4 -5 3 -7 -1 -3 -10 8 -36 -14 -29 -24 2 -5 -1 -8 -7 -8 -6 0 -9 -4 -5 -9
3 -5 -4 -12 -15 -16 -11 -3 -19 -9 -18 -13 3 -14 -25 -61 -33 -56 -5 3 -9 -2
-9 -10 0 -9 -5 -16 -11 -16 -6 0 -8 -7 -5 -16 3 -8 2 -13 -3 -10 -5 3 -11 -4
-14 -15 -3 -12 -10 -18 -15 -15 -6 3 -15 -8 -21 -24 -5 -17 -17 -33 -25 -36
-9 -3 -13 -10 -10 -15 3 -5 1 -9 -4 -9 -5 0 -15 -14 -22 -30 -7 -17 -22 -37
-34 -46 -11 -8 -21 -18 -21 -22 0 -5 -8 -16 -17 -26 -10 -10 -18 -24 -18 -32
0 -8 -4 -12 -10 -9 -9 6 -14 -8 -11 -27 0 -5 -5 -7 -12 -5 -6 1 -11 -4 -10
-10 2 -7 -4 -13 -13 -13 -8 0 -12 -5 -9 -10 3 -6 -1 -13 -9 -16 -9 -3 -16 -12
-16 -19 0 -8 -8 -21 -17 -31 -10 -10 -18 -20 -18 -24 0 -6 -20 -31 -49 -60
-11 -11 -16 -20 -12 -20 4 0 0 -7 -8 -16 -9 -8 -13 -20 -10 -26 4 -7 2 -8 -4
-4 -7 4 -12 2 -12 -4 0 -6 -5 -8 -12 -4 -7 4 -8 3 -4 -5 4 -6 0 -14 -9 -17 -9
-4 -14 -13 -11 -21 3 -8 1 -11 -4 -8 -6 3 -10 1 -10 -5 0 -7 -14 -25 -31 -41
-17 -16 -25 -29 -19 -29 7 0 3 -9 -10 -20 -13 -11 -20 -20 -16 -20 4 0 -9 -16
-28 -34 -20 -21 -30 -37 -23 -40 7 -2 4 -5 -6 -5 -10 -1 -15 -5 -12 -11 3 -5
-8 -24 -25 -41 -16 -18 -30 -36 -30 -41 0 -5 -4 -6 -10 -3 -9 6 -14 -8 -11
-27 0 -5 -6 -8 -15 -8 -8 0 -12 -5 -9 -11 4 -6 -3 -17 -15 -26 -12 -8 -19 -21
-16 -30 3 -8 1 -11 -4 -8 -6 3 -10 1 -10 -5 0 -6 -4 -9 -9 -5 -6 3 -9 -4 -8
-15 1 -11 4 -21 7 -21 24 -6 51 -5 56 2 3 5 11 9 17 9 7 0 6 -4 -3 -10 -19
-12 49 -8 69 4 9 6 12 5 8 -1 -4 -6 9 -10 33 -10 22 0 40 4 40 9 0 4 5 8 11 8
5 0 8 -4 4 -9 -3 -6 4 -9 15 -8 11 1 20 6 20 12 0 5 5 3 10 -5 5 -8 10 -10 10
-5 0 6 5 3 10 -5 6 -9 10 -11 10 -3 0 7 7 10 17 6 12 -5 14 -3 8 7 -6 10 -4
11 6 4 21 -13 139 -13 131 0 -3 6 2 5 11 -3 13 -10 20 -11 31 -2 11 9 16 9 22
0 5 -8 3 -9 -6 -4 -9 5 -11 4 -6 -4 6 -9 11 -9 22 0 8 6 14 8 14 4 0 -4 8 -1
17 6 9 8 14 9 11 3 -5 -6 16 -10 62 -10 43 1 66 4 62 11 -3 5 2 4 11 -4 13
-10 20 -11 31 -2 11 9 16 9 22 0 5 -8 3 -9 -6 -4 -9 5 -11 4 -6 -4 6 -9 11 -9
22 0 8 6 14 8 14 4 0 -4 8 -1 17 6 9 8 14 9 10 2 -8 -13 60 -12 81 1 7 4 12 2
12 -4 0 -6 4 -9 9 -6 5 4 12 0 14 -6 4 -10 6 -10 6 -1 1 7 8 10 18 6 12 -5 14
-3 8 7 -6 10 -4 11 6 4 21 -13 139 -13 131 0 -3 6 1 6 9 -1 21 -17 54 8 36 27
-7 7 -7 10 -1 7 8 -4 10 12 8 54 -3 45 0 58 9 52 9 -5 9 -3 1 8 -17 22 -26 51
-13 43 7 -4 9 5 5 27 -3 19 0 40 7 48 9 11 9 13 0 8 -15 -10 -15 52 1 72 9 12
8 13 -7 8 -14 -5 -16 -3 -9 11 5 9 8 46 7 82 -2 37 2 71 9 79 8 11 8 13 -1 8
-15 -9 -14 32 1 52 8 11 8 13 -1 8 -15 -10 -15 52 1 72 9 12 8 13 -7 8 -14 -5
-16 -3 -8 11 10 20 9 52 -4 71 -5 10 -4 12 4 7 8 -5 10 0 7 20 -3 15 0 35 7
43 9 11 9 13 0 8 -15 -10 -15 52 1 72 9 12 7 13 -8 8 -18 -7 -18 -6 -1 19 9
15 13 24 7 20 -5 -3 -12 6 -15 19 -2 14 0 28 6 32 6 4 7 1 2 -7 -5 -9 -4 -11
4 -6 6 4 8 13 4 19 -12 20 -12 41 0 56 9 11 9 13 0 8 -15 -10 -15 52 1 72 9
12 7 13 -8 8 -18 -7 -18 -6 -1 19 9 15 13 24 7 20 -5 -3 -12 6 -15 19 -2 14 0
28 6 32 6 4 7 1 2 -7 -5 -9 -4 -11 4 -6 6 4 8 13 4 19 -12 20 -12 41 0 56 9
12 9 13 0 8 -9 -5 -11 3 -9 30 2 21 -2 44 -8 52 -8 11 -8 13 2 7 7 -4 12 -1
12 9 0 10 -5 13 -12 9 -8 -5 -7 0 2 11 8 10 15 19 14 19 -10 13 -23 47 -15 42
7 -5 9 9 5 41 -5 53 -5 52 -22 46z"/>
<path d="M4205 4039 c-4 -6 -5 -12 -2 -15 2 -3 7 2 10 11 7 17 1 20 -8 4z"/>
<path d="M7156 4033 c-10 -10 -16 -13 -12 -6 4 7 -6 11 -29 11 -23 0 -33 -4
-29 -11 5 -9 3 -9 -6 0 -16 15 -40 6 -33 -13 3 -8 -1 -14 -8 -14 -12 0 -12 -2
0 -9 9 -6 10 -10 2 -16 -9 -5 -9 -10 0 -21 9 -11 8 -14 -2 -14 -9 0 -10 -3 -4
-8 15 -11 17 -32 3 -32 -10 0 -9 -3 1 -9 9 -6 10 -10 2 -16 -9 -5 -9 -10 0
-21 6 -8 7 -14 2 -14 -11 0 -10 -50 1 -68 4 -7 2 -12 -5 -12 -8 0 -8 -4 1 -15
10 -12 10 -15 -1 -15 -12 0 -12 -2 0 -9 10 -7 11 -10 1 -16 -10 -6 -9 -11 5
-22 18 -13 18 -13 -1 -14 -11 0 -14 -3 -6 -6 10 -4 10 -8 1 -19 -9 -11 -9 -14
1 -14 10 0 10 -3 0 -15 -10 -12 -10 -15 0 -15 10 0 10 -3 1 -14 -9 -11 -9 -16
0 -21 8 -6 7 -10 -2 -16 -12 -7 -12 -9 0 -9 10 0 11 -3 2 -14 -9 -11 -9 -16 0
-21 8 -6 7 -10 -2 -16 -12 -7 -12 -9 0 -9 10 0 11 -3 2 -14 -10 -11 -8 -17 6
-25 17 -10 17 -10 -2 -11 -12 -1 -15 -4 -7 -7 10 -4 10 -8 1 -19 -9 -11 -9
-14 1 -14 10 0 10 -3 0 -15 -9 -10 -9 -15 -1 -15 6 0 10 -3 10 -7 -3 -19 2
-33 12 -33 5 0 7 6 3 13 -6 10 -4 10 7 0 7 -7 29 -13 49 -13 20 0 42 6 49 13
10 10 11 8 5 -7 -6 -15 -4 -17 7 -10 8 4 25 7 38 5 17 -2 21 1 16 11 -3 7 1 4
9 -6 9 -11 16 -16 16 -10 0 5 69 8 170 7 127 -1 169 2 164 10 -3 7 2 3 10 -7
9 -11 16 -16 16 -10 0 5 31 9 69 9 38 0 67 -4 64 -9 -3 -5 2 -4 12 1 10 6 32
7 51 3 19 -5 34 -4 34 1 0 5 -5 9 -12 9 -6 0 -9 3 -6 6 4 3 19 -3 34 -13 27
-17 28 -17 21 0 -6 17 -6 17 17 0 16 -12 20 -20 12 -25 -8 -6 -8 -8 1 -8 12 0
12 -17 0 -37 -4 -6 -2 -15 4 -19 8 -4 7 -9 -2 -15 -9 -6 -10 -9 -2 -9 12 0 12
-17 0 -37 -4 -6 -2 -15 4 -19 8 -4 7 -9 -2 -15 -11 -7 -11 -9 -1 -9 9 0 10 -6
5 -17 -10 -22 -10 -44 0 -60 5 -8 3 -13 -4 -13 -8 0 -7 -5 2 -17 12 -15 12
-16 -1 -8 -13 8 -13 7 -1 -8 10 -13 10 -17 1 -17 -8 0 -9 -4 -3 -12 11 -15 11
-28 0 -45 -4 -6 -2 -15 4 -19 8 -4 7 -9 -2 -15 -9 -6 -10 -9 -2 -9 12 0 12
-17 0 -37 -4 -6 -2 -15 4 -19 8 -4 7 -9 -2 -15 -11 -7 -11 -9 -1 -9 9 0 10 -6
5 -17 -10 -22 -10 -44 0 -60 5 -8 3 -13 -4 -13 -8 0 -7 -5 2 -17 12 -15 12
-16 -1 -8 -13 8 -13 7 -1 -8 9 -12 10 -17 2 -17 -7 0 -9 -5 -4 -12 11 -19 12
-37 2 -44 -6 -3 -5 -11 2 -20 9 -11 8 -14 -2 -14 -9 0 -10 -3 -4 -8 12 -8 13
-22 2 -39 -4 -6 -2 -15 4 -19 8 -4 7 -9 -2 -15 -11 -7 -11 -9 -1 -9 9 0 10 -6
5 -17 -10 -22 -10 -44 0 -60 5 -8 3 -13 -4 -13 -8 0 -7 -5 2 -17 12 -15 12
-16 -1 -8 -13 8 -13 7 -1 -8 9 -12 10 -17 2 -17 -7 0 -9 -5 -4 -12 11 -19 12
-37 2 -44 -6 -3 -5 -11 2 -20 9 -11 8 -14 -2 -14 -9 0 -10 -3 -4 -8 12 -8 13
-22 2 -39 -4 -6 -2 -15 4 -19 8 -4 7 -9 -2 -15 -11 -7 -11 -9 -1 -9 9 0 10 -6
5 -17 -10 -22 -10 -44 0 -60 5 -8 3 -13 -3 -13 -7 0 -10 -6 -7 -14 3 -8 -1
-17 -9 -20 -8 -3 -14 0 -14 6 0 7 -4 7 -13 -1 -8 -6 -17 -8 -20 -4 -4 3 -7 1
-7 -5 0 -6 -12 -9 -27 -8 -16 2 -32 -2 -36 -8 -6 -8 -10 -7 -14 2 -3 9 -9 10
-17 3 -7 -6 -28 -11 -47 -12 -19 -2 -38 -5 -44 -8 -18 -9 -55 -10 -55 0 0 6
-5 7 -12 3 -6 -4 -29 -9 -51 -10 -22 -2 -42 -6 -45 -9 -3 -2 -11 0 -19 6 -7 7
-13 7 -13 2 0 -6 -11 -8 -25 -5 -16 3 -25 0 -25 -9 0 -8 -6 -5 -15 7 -8 10
-15 14 -15 8 0 -6 -12 -10 -27 -8 -16 2 -47 4 -70 5 -24 1 -43 7 -43 12 0 5
-8 3 -17 -4 -15 -12 -16 -12 -8 1 6 12 5 13 -5 3 -11 -10 -17 -10 -29 0 -12 9
-13 9 -7 0 4 -7 2 -13 -3 -13 -6 0 -11 4 -11 9 0 11 -32 7 -53 -5 -9 -6 -9 -5
0 7 9 11 7 14 -15 16 -15 1 -36 3 -47 6 -11 2 -26 0 -32 -6 -10 -7 -13 -4 -13
9 0 16 -2 17 -10 4 -9 -13 -10 -13 -10 0 0 12 -2 12 -9 1 -6 -10 -10 -10 -16
-1 -4 6 -13 9 -21 6 -8 -3 -14 0 -14 6 0 7 -4 7 -14 -1 -11 -9 -15 -8 -20 4
-3 9 -11 13 -16 10 -6 -4 -17 -1 -25 5 -8 6 -19 9 -24 6 -5 -4 -12 -2 -15 3
-4 5 -17 8 -31 7 -13 -2 -22 1 -19 5 4 8 -25 14 -48 10 -5 0 -8 3 -8 8 0 5 -7
12 -16 15 -9 4 -13 2 -8 -5 3 -6 -5 -4 -18 5 -14 9 -28 13 -31 10 -4 -4 -10 1
-13 10 -5 14 -9 15 -15 4 -7 -10 -9 -10 -9 0 0 6 -9 12 -21 12 -11 0 -17 5
-14 10 5 9 -23 15 -47 11 -5 0 -8 4 -8 11 0 6 -3 8 -7 5 -3 -4 -12 1 -20 11
-9 10 -11 11 -7 2 7 -12 5 -13 -8 -3 -8 7 -19 9 -23 5 -5 -4 -4 -1 0 7 6 11 4
13 -9 8 -10 -4 -15 -3 -11 3 7 11 -35 31 -47 23 -5 -2 -8 4 -8 14 0 14 -2 15
-9 4 -7 -11 -10 -9 -16 8 -3 12 -11 19 -16 15 -6 -3 -21 6 -35 21 -14 15 -31
24 -39 21 -9 -3 -20 3 -27 13 -7 11 -18 17 -27 13 -9 -3 -13 -2 -9 2 10 11
-34 57 -49 52 -7 -3 -13 1 -13 9 0 8 -6 14 -12 13 -7 -2 -12 3 -10 10 1 6 -4
12 -12 12 -8 0 -27 15 -42 33 -15 17 -29 30 -32 28 -7 -5 -52 38 -52 50 0 5
-4 9 -10 9 -11 0 -50 36 -50 46 0 10 -28 34 -41 34 -7 0 -9 3 -6 7 4 3 -1 12
-11 20 -11 10 -12 12 -2 8 8 -4 2 5 -13 19 -16 15 -25 31 -21 38 4 6 3 8 -4 4
-6 -3 -19 7 -28 24 -10 16 -22 30 -26 30 -4 0 -8 5 -8 11 0 7 -8 18 -17 26
-10 8 -12 11 -4 7 9 -5 8 2 -5 19 -10 15 -23 27 -27 27 -5 0 -5 5 -2 10 3 6
-2 10 -12 10 -14 0 -15 2 -5 9 11 7 11 11 -2 23 -8 9 -12 18 -9 22 4 3 1 6 -5
6 -7 0 -12 6 -12 14 0 8 -9 13 -23 12 -20 -1 -23 -6 -21 -34 1 -18 -2 -35 -7
-38 -5 -3 -6 -11 -2 -17 4 -7 8 -19 8 -27 0 -8 4 -21 9 -29 6 -9 5 -12 -1 -8
-6 4 -13 0 -17 -8 -3 -8 -1 -17 5 -21 6 -4 5 -12 -3 -22 -8 -9 -8 -13 -2 -9 7
4 15 0 18 -9 3 -8 2 -13 -3 -10 -5 3 -11 -1 -15 -9 -3 -8 -1 -17 5 -21 6 -4 6
-11 -1 -19 -14 -17 -4 -38 13 -28 7 4 6 0 -2 -10 -7 -9 -10 -17 -6 -17 4 0 2
-6 -4 -14 -8 -10 -9 -16 -1 -21 6 -3 7 -11 4 -17 -4 -6 0 -14 7 -19 11 -7 9
-9 -6 -9 -12 0 -16 -3 -9 -8 12 -8 13 -50 1 -69 -4 -6 -1 -18 6 -25 12 -11 12
-15 -2 -26 -9 -7 -11 -11 -4 -8 8 4 11 -4 9 -26 -2 -18 2 -39 8 -47 8 -11 8
-13 0 -8 -7 4 -14 0 -18 -8 -3 -8 -1 -17 5 -21 6 -4 5 -12 -3 -22 -8 -9 -8
-13 -2 -9 7 4 15 0 18 -9 3 -8 2 -13 -3 -10 -5 3 -11 -1 -15 -9 -3 -8 -1 -17
5 -21 7 -4 6 -10 0 -18 -6 -7 -8 -16 -4 -20 4 -3 8 -16 10 -27 2 -14 -1 -18
-9 -13 -10 6 -10 5 -1 -7 14 -17 14 -30 1 -46 -8 -10 -6 -13 8 -14 11 0 14 -3
7 -5 -7 -3 -9 -12 -6 -21 5 -12 3 -14 -8 -8 -11 7 -12 6 -2 -6 18 -23 19 -25
5 -41 -10 -13 -10 -19 3 -32 9 -9 12 -16 6 -16 -6 0 -7 -7 -4 -17 5 -12 3 -14
-7 -8 -9 6 -11 4 -5 -6 5 -7 10 -31 10 -53 1 -22 7 -42 14 -44 6 -2 24 -14 39
-26 15 -13 34 -21 42 -18 8 3 12 1 8 -3 -11 -12 11 -35 34 -35 10 0 16 -5 13
-10 -3 -6 -1 -10 5 -10 6 0 18 -7 26 -15 8 -8 21 -12 30 -8 8 3 14 2 12 -3 -2
-5 1 -10 5 -11 5 -1 17 -11 26 -22 10 -12 26 -21 35 -21 9 0 16 -5 16 -11 0
-5 5 -7 10 -4 6 3 10 1 10 -5 0 -6 5 -8 10 -5 6 3 10 1 10 -6 0 -7 3 -9 7 -6
3 4 12 -1 20 -11 9 -10 11 -11 7 -2 -7 13 -5 13 9 1 9 -7 15 -16 12 -20 -2 -4
6 -7 18 -6 22 2 48 -15 41 -26 -2 -3 8 -5 21 -3 14 1 25 -2 25 -7 0 -6 5 -7
10 -4 6 3 10 1 10 -4 0 -6 7 -11 16 -11 8 0 13 -4 10 -9 -4 -5 2 -7 13 -4 11
3 21 -2 24 -11 4 -9 13 -13 22 -10 8 4 15 1 15 -7 0 -7 3 -10 6 -7 3 4 24 -2
47 -12 23 -10 45 -16 49 -14 4 3 8 0 8 -5 0 -6 11 -11 25 -11 14 0 25 -5 25
-11 0 -5 5 -7 10 -4 6 3 10 1 10 -4 0 -6 5 -11 11 -11 5 0 7 6 3 13 -4 6 2 4
13 -6 16 -14 22 -15 26 -5 4 9 6 8 6 -4 1 -11 7 -15 21 -11 12 3 20 0 20 -7 0
-10 3 -10 14 -1 10 8 15 9 18 1 2 -6 13 -12 26 -13 12 0 22 -4 22 -7 0 -6 17
-10 53 -11 9 0 17 -5 17 -10 0 -6 5 -7 10 -4 6 4 17 1 25 -5 12 -10 15 -10 15
0 0 9 3 10 13 1 8 -6 17 -8 20 -4 4 3 7 1 7 -7 0 -10 4 -10 17 1 11 10 14 10
9 2 -7 -12 14 -17 77 -16 9 0 17 -3 17 -7 0 -3 10 -7 23 -8 12 -1 38 -2 57 -4
19 -1 38 -6 42 -12 4 -6 13 -4 24 5 11 9 15 9 10 1 -8 -14 19 -12 43 2 9 6 12
5 8 -1 -9 -14 10 -21 56 -19 20 1 37 -3 37 -8 0 -8 3 -8 8 0 7 10 52 14 52 4
0 -3 18 -6 40 -7 29 -1 38 2 33 10 -5 9 -3 9 8 1 8 -5 23 -10 34 -9 11 0 32
-3 47 -7 17 -4 30 -2 34 4 5 7 2 8 -6 3 -9 -5 -11 -4 -6 4 5 7 12 9 19 3 7 -4
21 -8 32 -7 11 0 32 -3 47 -7 17 -4 30 -2 34 4 5 7 2 8 -6 3 -9 -5 -11 -4 -6
4 6 9 11 9 23 0 12 -10 16 -10 24 2 7 12 9 12 9 -1 0 -9 3 -11 8 -5 4 6 16 11
27 11 11 0 23 -5 27 -11 5 -6 8 -5 8 3 0 15 41 13 52 -3 4 -5 8 -1 8 10 0 15
3 17 9 7 7 -11 9 -10 15 3 3 10 11 13 18 8 20 -12 50 -14 43 -3 -4 7 2 7 18 1
15 -6 28 -6 34 0 5 5 27 11 49 12 26 2 38 7 36 15 -1 8 2 11 10 6 20 -12 68
-15 68 -4 0 7 6 7 20 0 16 -8 18 -8 14 4 -4 11 0 14 15 11 12 -2 21 1 21 7 0
7 6 6 15 -2 10 -8 15 -9 15 -2 0 7 7 9 17 5 10 -4 14 -2 10 4 -5 7 5 11 26 11
17 0 45 7 61 15 15 9 40 13 53 11 19 -4 24 -1 20 9 -4 11 0 13 14 10 10 -3 27
1 36 8 15 12 16 12 8 -1 -7 -13 -6 -13 7 -2 9 7 29 15 44 18 16 3 31 8 34 12
3 4 11 8 18 10 6 1 18 3 25 5 6 1 14 5 17 9 3 4 15 9 27 11 12 1 29 9 39 17
11 9 15 10 10 3 -10 -18 9 -16 24 2 7 8 17 12 23 8 5 -3 16 2 23 12 7 10 20
15 29 12 8 -4 15 -2 15 3 0 6 9 10 19 10 13 0 21 9 25 28 9 47 5 176 -6 190
-8 9 -7 11 6 6 12 -5 15 -2 10 10 -3 9 -11 16 -17 16 -6 0 -2 7 9 15 11 8 14
14 6 15 -8 0 -10 6 -5 18 8 16 9 32 3 57 -6 27 -4 51 5 57 6 5 5 8 -3 8 -7 0
-10 5 -7 10 4 6 1 18 -6 26 -10 12 -9 13 5 8 12 -5 15 -2 10 10 -3 9 -11 16
-18 16 -8 0 -7 3 1 8 9 6 12 50 10 160 -1 96 2 152 8 152 7 0 7 3 0 8 -5 4
-10 39 -10 77 0 39 5 73 10 77 7 5 7 8 0 8 -6 0 -10 32 -10 75 0 43 4 75 10
75 7 0 7 3 0 8 -5 4 -10 39 -10 77 0 39 5 73 10 77 7 5 7 8 0 8 -6 0 -9 36 -8
92 1 55 -3 98 -9 105 -8 10 -7 12 6 7 12 -5 15 -2 10 10 -3 9 -11 16 -17 16
-6 0 -2 7 9 15 11 8 14 14 6 15 -8 0 -10 6 -5 18 8 16 9 32 3 57 -6 27 -4 51
5 57 6 5 5 8 -3 8 -7 0 -10 5 -7 10 4 6 1 18 -6 26 -10 12 -9 13 5 8 12 -5 15
-2 10 10 -3 9 -11 16 -18 16 -8 0 -7 3 1 8 9 6 12 50 10 160 -1 96 2 152 8
152 7 0 7 3 0 8 -5 4 -10 39 -10 77 0 39 5 73 10 77 6 5 5 8 -3 8 -7 0 -10 5
-7 10 4 6 1 18 -6 26 -10 12 -9 13 5 8 12 -5 15 -2 10 10 -3 9 -11 16 -17 16
-6 0 -2 7 9 15 12 9 14 14 6 15 -7 0 -10 5 -7 11 11 17 13 59 3 65 -4 3 -6 8
-4 12 7 12 -18 27 -47 29 -17 1 -25 -2 -21 -8 3 -6 -3 -5 -15 3 -17 10 -25 10
-41 0 -23 -14 -42 -16 -20 -2 11 7 8 9 -15 8 -16 -1 -33 -7 -37 -13 -5 -6 -8
-6 -8 3 0 6 -8 12 -18 12 -10 0 -24 -6 -31 -12 -11 -10 -13 -10 -7 0 9 14 -20
17 -29 2 -3 -5 -12 -10 -18 -10 -7 0 -6 4 3 10 11 7 8 9 -15 8 -16 -1 -33 -7
-37 -13 -5 -6 -8 -6 -8 3 0 14 -36 16 -45 2 -4 -6 -12 -7 -18 -3 -21 13 -49
14 -41 1 5 -7 3 -8 -7 -2 -21 13 -80 14 -72 0 3 -6 0 -6 -8 2 -15 14 -43 16
-34 2 3 -6 -1 -7 -9 -4 -9 3 -13 11 -9 18 3 6 -4 2 -17 -9 -13 -11 -20 -14
-16 -7 9 15 -40 17 -49 2 -3 -5 -12 -10 -18 -10 -7 0 -6 4 3 10 11 7 8 9 -15
8 -16 -1 -33 -7 -37 -13 -5 -6 -8 -6 -8 3 0 15 -32 16 -46 2 -14 -14 -46 -2
-37 14 3 6 -4 2 -17 -9 -13 -11 -20 -15 -17 -9 5 8 -6 12 -32 11 -23 -1 -37
-5 -34 -10 4 -6 1 -7 -8 -1 -19 12 -80 14 -73 2 3 -5 -3 -4 -15 4 -17 10 -25
10 -41 0 -23 -14 -42 -16 -20 -2 11 7 8 9 -15 8 -16 -1 -33 -7 -37 -13 -5 -6
-8 -6 -8 3 0 6 -8 12 -18 12 -10 0 -24 -6 -31 -12 -11 -10 -13 -10 -7 0 9 14
-20 17 -29 2 -3 -5 -12 -10 -18 -10 -7 0 -6 4 3 10 11 7 8 9 -15 8 -16 -1 -33
-7 -37 -13 -5 -6 -8 -6 -8 3 0 14 -36 16 -45 2 -4 -6 -12 -7 -18 -3 -21 13
-49 14 -41 1 5 -7 3 -8 -7 -2 -21 13 -80 14 -72 0 3 -6 0 -6 -8 2 -15 14 -43
16 -34 2 3 -6 -1 -7 -9 -4 -9 3 -13 10 -10 15 8 14 0 11 -20 -8z"/>
<path d="M3007 2387 c-47 -50 -77 -90 -77 -105 0 -7 -4 -10 -10 -7 -5 3 -10 0
-10 -8 0 -8 -13 -28 -28 -45 -15 -16 -26 -35 -24 -42 3 -8 0 -10 -8 -5 -9 6
-12 4 -8 -6 6 -16 -16 -41 -28 -31 -4 4 -4 2 -1 -4 4 -6 -2 -19 -13 -29 -11
-10 -20 -24 -20 -32 0 -7 -5 -13 -11 -13 -5 0 -8 -4 -5 -8 3 -5 -4 -14 -14
-22 -10 -8 -17 -17 -14 -22 3 -4 1 -8 -5 -8 -5 0 -13 -9 -16 -20 -4 -11 -11
-17 -17 -14 -6 4 -8 2 -5 -3 4 -6 -5 -23 -18 -39 -14 -16 -23 -35 -20 -42 3
-7 0 -10 -6 -7 -6 4 -13 -2 -16 -14 -3 -11 -9 -18 -14 -15 -8 5 -13 -9 -10
-28 0 -5 -4 -8 -10 -8 -5 0 -7 -5 -3 -12 4 -7 3 -8 -5 -4 -6 4 -14 0 -18 -11
-3 -10 -12 -22 -20 -26 -7 -4 -13 -20 -13 -35 0 -19 -3 -23 -9 -14 -6 10 -11
5 -19 -18 -7 -20 -16 -29 -23 -24 -7 4 -10 2 -7 -6 2 -8 -3 -22 -11 -31 -38
-43 -41 -47 -28 -52 7 -3 4 -6 -5 -6 -10 -1 -18 -8 -18 -17 0 -8 -4 -13 -9
-10 -11 7 -23 -22 -14 -36 4 -7 1 -8 -6 -4 -8 5 -14 0 -18 -13 -3 -12 -10 -21
-16 -21 -6 0 -8 -3 -4 -6 7 -8 -35 -50 -48 -46 -5 1 -2 -4 8 -12 18 -14 18
-14 0 -19 -22 -6 15 -8 180 -10 77 -1 129 2 131 8 3 6 5 6 5 0 1 -6 27 -10 67
-8 36 1 76 -3 88 -9 19 -10 20 -10 7 6 -12 14 -12 16 2 10 28 -10 307 -10 311
1 3 6 5 6 5 0 1 -6 27 -10 67 -8 36 1 76 -3 88 -9 19 -10 20 -10 7 6 -12 14
-12 16 2 10 28 -10 307 -10 311 1 3 6 5 6 5 0 1 -6 27 -10 67 -8 36 1 76 -3
88 -9 19 -10 20 -10 7 6 -12 14 -12 16 2 10 28 -10 307 -10 311 1 3 6 5 6 5 0
1 -6 27 -10 67 -8 36 1 76 -3 88 -9 19 -10 20 -10 7 6 -12 14 -12 16 2 10 28
-10 307 -10 311 1 3 7 5 7 5 0 1 -6 34 -9 83 -7 103 3 108 4 108 12 0 3 -6 12
-12 19 -11 11 -10 12 0 7 9 -6 11 0 8 20 -3 15 0 35 7 43 9 11 9 13 0 8 -15
-10 -15 52 1 72 9 12 8 13 -7 8 -14 -5 -16 -3 -9 11 5 9 8 46 7 82 -2 37 2 71
9 79 8 11 8 13 -1 8 -15 -9 -14 32 1 52 8 11 8 13 -1 8 -15 -10 -15 52 1 72 9
12 7 13 -8 8 -18 -7 -18 -6 -2 17 9 14 12 27 7 31 -12 7 -11 66 1 82 6 7 5 14
-3 19 -8 5 -9 3 -4 -6 5 -9 4 -11 -4 -6 -9 6 -9 11 0 22 6 8 8 14 4 14 -4 0
-2 6 4 14 8 9 8 16 2 20 -12 8 -12 67 1 83 6 7 5 14 -3 19 -8 5 -9 3 -4 -6 5
-9 4 -11 -4 -6 -7 5 -9 12 -3 19 11 15 9 67 -2 86 -6 10 -5 12 3 7 8 -5 10 0
7 20 -3 15 0 35 7 43 10 12 9 13 -2 6 -11 -6 -13 -3 -9 13 4 14 2 22 -7 22 -7
0 -15 5 -17 11 -3 9 -10 9 -26 0 -17 -9 -22 -9 -22 0 0 8 -4 8 -15 -1 -8 -7
-15 -8 -15 -3 0 5 -9 9 -20 10 -12 1 -18 -3 -14 -9 4 -6 -3 -5 -16 2 -15 8
-20 8 -16 1 4 -6 3 -11 -3 -11 -5 0 -11 5 -13 11 -3 9 -10 9 -26 0 -12 -6 -22
-8 -22 -4 0 11 -42 9 -60 -2 -9 -6 -11 -4 -5 6 8 12 6 12 -8 0 -14 -11 -17
-11 -17 0 0 12 -2 12 -9 0 -7 -10 -10 -10 -13 -1 -3 10 -9 10 -26 1 -17 -9
-22 -9 -22 0 0 8 -4 8 -15 -1 -8 -7 -15 -8 -15 -3 0 5 -9 9 -20 10 -12 1 -18
-3 -14 -9 4 -6 -3 -5 -16 2 -15 8 -20 8 -16 1 4 -6 3 -11 -3 -11 -5 0 -11 5
-13 11 -3 9 -10 9 -26 0 -12 -6 -22 -8 -22 -4 0 11 -42 9 -60 -2 -9 -6 -11 -4
-5 6 8 12 6 12 -8 0 -14 -11 -17 -11 -17 0 0 12 -2 12 -9 0 -7 -10 -10 -10
-13 -1 -3 10 -9 10 -26 1 -17 -9 -22 -9 -22 0 0 8 -4 8 -15 -1 -8 -7 -15 -8
-15 -3 0 5 -9 9 -20 10 -12 1 -18 -3 -14 -9 4 -6 -3 -5 -16 2 -15 8 -20 8 -16
1 4 -6 3 -11 -3 -11 -5 0 -11 5 -13 11 -3 9 -10 9 -26 0 -17 -9 -22 -9 -22 0
0 9 -3 9 -14 0 -10 -9 -15 -9 -18 -1 -2 8 -11 8 -31 1 -20 -8 -27 -7 -27 2 0
8 -3 8 -9 -2 -6 -9 -10 -10 -12 -2 -3 9 -12 9 -32 2 -15 -6 -27 -7 -27 -2 0
11 -19 9 -37 -2 -8 -5 -13 -3 -13 4 0 8 -4 8 -15 -1 -12 -10 -15 -10 -15 1 0
11 -2 11 -10 -1 -5 -8 -10 -10 -10 -5 0 6 -9 11 -20 12 -12 1 -18 -3 -14 -9 4
-6 -3 -5 -16 2 -15 8 -20 8 -16 1 4 -6 3 -11 -3 -11 -5 0 -11 5 -13 11 -3 9
-10 9 -26 0 -15 -8 -22 -8 -22 -1 0 7 -6 8 -17 2 -10 -5 -27 -6 -38 -1 -28 11
-37 11 -30 -1 7 -12 -17 -9 -26 3 -3 4 -18 3 -32 -2 -20 -8 -27 -7 -27 2 0 8
-3 8 -9 -2 -6 -9 -10 -10 -12 -2 -3 9 -12 9 -32 2 -15 -6 -27 -7 -27 -2 0 11
-19 9 -37 -2 -8 -5 -13 -3 -13 4 0 8 -4 8 -15 -1 -12 -10 -15 -10 -15 1 0 11
-2 11 -10 -1 -5 -8 -10 -10 -10 -5 0 6 -9 11 -20 12 -12 1 -18 -3 -14 -9 4 -6
-2 -5 -15 2 -19 10 -26 7 -54 -23z"/>
</g>
</svg>
